<svg width="128" height="128" viewBox="0 0 128 128" fill="none" xmlns="http://www.w3.org/2000/svg">
  <path d="M64 11C74.4184 21.1908 89.2563 27.25 105 27.25V59.75C105 85.9724 87.2586 109.005 64 117C40.7414 109.005 23 85.9724 23 59.75V27.25C38.7437 27.25 53.5816 21.1908 64 11Z" fill="#0B3558"/>
  <path d="M64 35C77.8071 35 89 46.1929 89 60C89 73.8071 77.8071 85 64 85C50.1929 85 39 73.8071 39 60C39 46.1929 50.1929 35 64 35Z" fill="#1ECF6B"/>
  <path d="M64 44C72.8366 44 80 51.1634 80 60C80 68.8366 72.8366 76 64 76C55.1634 76 48 68.8366 48 60C48 51.1634 55.1634 44 64 44Z" fill="#0B3558"/>
  <path d="M64 49.5C70.3513 49.5 75.5 54.6487 75.5 61C75.5 67.3513 70.3513 72.5 64 72.5C57.6487 72.5 52.5 67.3513 52.5 61C52.5 54.6487 57.6487 49.5 64 49.5Z" fill="#F5D247"/>
  <path d="M57.0431 61.0937L62.8221 66.8727L76.9567 52.7381" stroke="#1ECF6B" stroke-width="7.5" stroke-linecap="round" stroke-linejoin="round"/>
</svg>
